<?xml version="1.0" encoding="utf-8"?>
<!-- Generator: Adobe Illustrator 13.0.0, SVG Export Plug-In . SVG Version: 6.00 Build 14948)  -->
<!DOCTYPE svg PUBLIC "-//W3C//DTD SVG 1.1//EN" "http://www.w3.org/Graphics/SVG/1.1/DTD/svg11.dtd">
<svg version="1.1" id="Ebene_1" xmlns="http://www.w3.org/2000/svg" xmlns:xlink="http://www.w3.org/1999/xlink" x="0px" y="0px"
	 width="667.585px" height="220.72px" viewBox="0 0 667.585 220.72" enable-background="new 0 0 667.585 220.72"
	 xml:space="preserve">
<path fill-rule="evenodd" clip-rule="evenodd" fill="#172983" d="M633.809,1.983H589.6c-2.182,0-3.965,1.982-3.965,3.965v5.947
	c-4.76-5.947-12.094-9.912-20.42-9.912h-23.592c-2.381,0-3.967,1.982-3.967,3.965v18.636C532.502,10.111,518.822,0,502.766,0
	c-12.293,0-22.998,6.146-29.738,15.067c-4.561-7.732-12.887-13.084-22.799-13.084h-23.791c-2.18,0-4.162,1.982-4.162,3.965v33.901
	c-3.371-7.732-11.104-13.283-19.627-13.283l-14.473,0.198c-1.785,0-3.371-1.388-3.371-3.172c0-1.982,1.586-3.37,3.371-3.37h25.178
	c1.982,0,3.965-1.785,3.965-3.965V5.948c0-1.982-1.982-3.965-3.965-3.965h-24.979c-12.293,0-21.809,10.11-21.809,22.402
	c0,12.093,9.516,21.411,21.809,21.411h14.273c1.586,0,3.172,1.388,3.172,3.172s-1.586,3.37-3.568,3.37h-28.746
	c-2.182,0-3.965,1.784-3.965,3.965v11.499c0,2.181,1.783,3.965,3.965,3.965h28.746c8.92,0,16.652-5.353,20.023-12.886v8.327
	l0.197,0.595c0,2.181,1.785,3.965,3.965,3.965h11.104c2.18,0,3.766-1.784,3.766-3.965V55.907c0-0.992,0.596-1.586,1.785-1.586h7.137
	c6.541,0,12.688-2.379,17.445-6.542c4.758,14.869,18.637,25.971,35.092,25.971c16.057,0,29.736-10.111,34.891-24.781v18.239v0.595
	c0,2.181,1.785,3.965,3.967,3.965h12.488c1.982,0,3.768-1.784,3.768-3.965V61.26V50.158c0-0.396,0-0.793,0.793-0.793
	c0.396,0,0.793,0.396,0.793,0.595l12.291,19.23c0.992,1.388,2.578,2.577,4.361,2.577h14.869c0.992,0,1.982-1.189,1.982-2.181
	c0-0.396,0-0.793-0.197-1.189l-12.293-19.23c6.543-4.56,10.904-12.49,10.904-21.015c0-2.577-0.396-4.957-0.99-7.335h10.705
	c0.594,0,0.99,0.396,0.99,0.991v45.994c0,2.181,1.785,3.965,3.967,3.965h10.902c2.379,0,4.164-1.784,4.164-3.965V21.808
	c0-0.595,0.197-0.991,0.793-0.991h11.895c2.182,0,3.965-1.586,3.965-3.767V5.948C637.773,3.965,635.99,1.983,633.809,1.983
	L633.809,1.983z M448.643,35.487h-6.344c-0.596,0-0.992,0-0.992-0.595V21.808c0-0.595,0.199-0.991,0.596-0.991h6.74
	c4.162,0,7.533,3.37,7.533,7.335C456.176,32.315,452.805,35.487,448.643,35.487L448.643,35.487z M502.766,50.752
	c-7.732,0-13.879-6.344-13.879-14.076c0-7.335,6.146-13.481,13.879-13.481c7.73,0,13.877,6.146,13.877,13.481
	C516.643,44.409,510.496,50.752,502.766,50.752L502.766,50.752z M564.619,35.487h-6.74c-0.396,0-0.793,0-0.793-0.595V21.808
	c0-0.595,0.396-0.991,0.793-0.991h6.74c3.965,0,7.137,3.37,7.137,7.335C571.756,32.315,568.584,35.487,564.619,35.487
	L564.619,35.487z M45.598,23.195c-6.344,8.525-16.455,13.68-27.755,13.68v34.892c17.049,0,32.513-8.524,42.029-21.609
	c6.344-8.128,16.455-13.481,27.358-13.481V1.785C70.379,1.785,55.312,10.111,45.598,23.195L45.598,23.195z"/>
<path fill-rule="evenodd" clip-rule="evenodd" fill="#172983" stroke="#000000" stroke-width="0.216" stroke-miterlimit="22.9256" d="
	M657.074,15.062L657.074,15.062c1.748-0.198,3.238-1.693,3.238-3.68c0-3.676-3.037-4.13-6.268-4.13h-3.934v15.867h2.387v-7.163
	h1.295c1.344,0,1.986,0,2.84,1.492l2.387,5.671h2.588l-3.043-6.323C658.17,15.759,657.725,15.506,657.074,15.062L657.074,15.062z
	 M654.486,14.011h-1.988V9.243h2.189c2.189,0,3.24,0.844,3.24,2.381C657.928,13.116,656.633,14.011,654.486,14.011L654.486,14.011z
	 M655.137,3.172c-6.957,0-12.385,5.625-12.385,12.334c0,6.961,5.428,12.39,12.385,12.39c6.713,0,12.34-5.429,12.34-12.39
	C667.477,8.798,661.85,3.172,655.137,3.172L655.137,3.172z M655.137,26.602c-6.057,0-11.09-5.029-11.09-11.096
	c0-6.071,5.033-10.843,11.09-10.843c6.07,0,10.848,4.772,10.848,10.843C665.984,21.573,661.207,26.602,655.137,26.602
	L655.137,26.602z"/>
<path fill-rule="evenodd" clip-rule="evenodd" fill="#E2001A" d="M363.791,64.035c-0.396-0.792-0.992-2.379-0.992-3.767
	c-0.396-0.793-0.396-1.586-0.396-2.379l-0.396-7.93c0-6.741-5.154-12.292-11.695-13.283c7.73-1.586,13.48-8.723,13.48-17.049
	c0-9.715-8.129-17.843-18.041-17.843h-31.324c-2.775,0-4.956,2.379-4.956,5.353v58.484c0,3.568,2.775,6.74,6.74,6.74
	c3.767,0,6.542-3.172,6.542-6.74V43.021c0-0.793,0.991-0.992,1.189-0.992h13.282c5.75,0,10.707,4.758,10.707,10.904l1.188,13.085
	l0.398,1.586c0.197,0.396,0.396,0.595,0.793,0.793c0.396,0.991,1.188,1.586,1.783,2.181c1.389,1.189,2.775,1.784,4.758,1.784
	c1.785,0,3.172-0.595,4.561-1.586c0.594-0.396,0.793-0.595,0.99-0.793c0.992-0.793,1.389-1.982,1.586-2.775
	C363.988,66.415,363.988,65.622,363.791,64.035L363.791,64.035z M341.785,31.72h-17.843c-0.198,0-0.793-0.595-0.793-0.991V13.085
	c0-0.397,0.595-0.992,0.793-0.992h16.851c5.354,0,9.518,4.56,9.518,9.715C350.311,26.962,346.543,31.125,341.785,31.72
	L341.785,31.72z M17.446,1.983C7.93,1.983,0,9.714,0,19.627c0,9.317,7.93,17.049,17.446,17.049c9.715,0,17.446-7.732,17.446-17.049
	C34.892,9.714,27.161,1.983,17.446,1.983L17.446,1.983z M113.598,1.586c-3.568,0-6.74,2.974-6.74,6.542v57.493
	c0,3.767,3.172,6.938,6.74,6.938c3.767,0,6.741-3.172,6.741-6.938V8.128C120.338,4.56,117.365,1.586,113.598,1.586L113.598,1.586z
	 M181.4,1.586c-3.767,0-6.939,2.974-6.939,6.542v35.487c0,0.397,0,0.793-0.396,0.793c-0.396,0-0.396,0-0.991-0.595L148.094,5.75
	c-1.388-2.775-3.965-4.164-7.137-4.164c-4.163,0-7.534,2.578-7.93,6.542v57.493c0,3.767,2.974,6.938,6.542,6.938
	c3.767,0,6.741-3.172,6.741-6.938V27.161c0-0.198,0.396-0.793,0.991-0.793c0.198,0,0.396,0.198,0.793,0.595l27.161,41.435
	c1.189,2.181,3.172,4.163,6.146,4.163c3.568,0,6.74-3.172,6.74-6.938l-0.198-57.493C187.942,4.56,184.968,1.586,181.4,1.586
	L181.4,1.586z M242.065,1.983l-45.796-0.198c-3.172,0-5.948,2.974-5.948,5.947c0,3.568,2.775,6.146,5.948,6.146h15.265
	c0.396,0,0.991,0.397,0.991,1.19l-0.198,50.554c0,3.568,2.974,6.74,6.939,6.74c3.568,0,6.542-3.172,6.542-6.74V15.067
	c0-0.793,0.595-1.19,0.991-1.19h15.067c3.172,0,5.947-2.577,5.947-5.749C247.814,4.758,245.237,1.983,242.065,1.983L242.065,1.983z
	 M265.458,13.877h30.927c3.172,0,5.75-2.577,5.75-5.749c0-3.37-2.379-6.146-5.75-6.146l-40.443-0.198
	c-2.775,0-4.758,2.379-4.758,5.353v59.674c0,2.577,1.982,4.956,4.758,4.956h40.443c3.172,0,5.75-2.577,5.75-6.146
	c0-3.172-2.577-5.75-5.948-5.75h-30.729c-0.397,0-0.991-0.396-0.991-0.991V41.633c0-0.595,0.594-0.991,0.991-0.991h26.565
	c3.172,0,5.75-2.578,5.75-5.551c0-3.371-2.379-6.146-5.75-6.146h-26.565c-0.397,0-0.991-0.198-0.991-0.793V15.067
	C264.467,14.274,265.062,13.877,265.458,13.877L265.458,13.877z"/>
<path stroke="#000000" stroke-width="0.3784" stroke-miterlimit="22.9256" d="M109.168,96.033v42.188h11.246v-14.713h4.8
	c10.7,0,16.354-4.924,16.354-14.041c0-9.238-5.655-13.434-17.326-13.434H109.168L109.168,96.033z M120.414,103.633h3.039
	c4.437,0,6.747,2.248,6.747,6.381c0,3.89-2.31,5.896-6.809,5.896h-2.977V103.633L120.414,103.633z M151.72,96.033v42.188h11v-16.475
	h1.642c4.072,0,5.957,0.962,7.233,4.902l3.708,11.572h11.733l-5.047-13.994c-1.152-3.271-2.004-5.704-5.348-6.918
	c5.409-1.215,8.328-4.862,8.328-10.275c0-7.537-5.471-11-16.474-11H151.72L151.72,96.033z M162.72,103.447h2.798
	c5.714,0,8.448,1.643,8.448,5.533c0,3.524-2.429,5.29-7.294,5.29h-3.952V103.447L162.72,103.447z M215.79,95.001
	c-13.07,0-20.974,8.204-20.974,22.126c0,13.918,7.842,22.064,20.974,22.064c13.066,0,20.909-8.146,20.909-22.064
	C236.699,103.205,228.856,95.001,215.79,95.001L215.79,95.001z M215.79,103.205c5.591,0,9.604,5.166,9.604,13.798
	c0,8.695-3.952,13.861-9.604,13.861c-5.655,0-9.665-5.166-9.665-13.861C206.125,108.312,210.196,103.205,215.79,103.205
	L215.79,103.205z M248.006,96.033v42.188h11.308v-17.142h15.743v-8.027h-15.743v-8.994h16.471v-8.024H248.006L248.006,96.033z
	 M286.606,96.033v42.188h11.247V96.033H286.606L286.606,96.033z M310.677,96.033v42.188h9.847v-28.146
	c0-1.276-0.119-4.256-0.486-8.998c0.548,2.98,1.157,5.471,1.766,7.417l9.299,29.727h10.09l9.485-30.212
	c0.667-2.066,1.275-4.376,1.823-6.932c-0.305,3.041-0.486,5.956-0.486,8.812v28.331h10.576V96.033h-16.898l-7.724,25.104
	c-0.485,1.642-0.971,4.194-1.275,7.722c-0.182-3.099-0.605-5.594-1.152-7.479l-7.723-25.347H310.677L310.677,96.033z
	 M386.236,96.033l-15.985,42.188h11.123l3.161-8.938h16.229l2.98,8.938h12.036l-15.989-42.188H386.236L386.236,96.033z
	 M392.801,105.456l5.291,15.804H387.33L392.801,105.456L392.801,105.456z M422.951,96.033v42.188h11.004v-16.475h1.642
	c4.072,0,5.957,0.962,7.233,4.902l3.709,11.572h11.732l-5.047-13.994c-1.156-3.271-2.006-5.704-5.349-6.918
	c5.41-1.215,8.328-4.862,8.328-10.275c0-7.537-5.471-11-16.475-11H422.951L422.951,96.033z M433.955,103.447h2.795
	c5.715,0,8.451,1.643,8.451,5.533c0,3.524-2.434,5.29-7.294,5.29h-3.952V103.447L433.955,103.447z M467.57,96.033v42.188h11.246
	v-19.575l13.252,19.575h13.979l-17.079-22.798l15.499-19.39h-12.58l-13.07,18.237V96.033H467.57L467.57,96.033z M510.424,96.033
	v8.448h10.455v33.739h11.247v-33.739h10.456v-8.448H510.424L510.424,96.033z"/>
<g>
	<path stroke="#000000" stroke-width="0.3784" stroke-miterlimit="22.9256" d="M140.885,159.061v3.743h3.459v-3.743H140.885
		L140.885,159.061z M145.904,159.061v3.743h3.489v-3.743H145.904L145.904,159.061z M136.745,165.495v11.456
		c0,5.754,2.836,8.677,8.396,8.677c5.611,0,8.39-2.895,8.39-8.677v-11.456h-4.988v11.456c0,3.147-1.164,4.763-3.401,4.763
		c-2.299,0-3.147-1.561-3.147-4.763v-11.456H136.745L136.745,165.495z M158.149,165.495v19.677h7.653
		c5.416,0,8.082-1.699,8.082-5.442c0-2.495-1.475-4.168-4.195-4.679c2.409-0.652,3.685-2.182,3.685-4.45
		c0-3.377-2.412-5.105-7.174-5.105H158.149L158.149,165.495z M163.281,169.04h1.841c2.015,0,3.062,0.736,3.062,2.125
		c0,1.533-1.105,2.269-3.315,2.269h-1.588V169.04L163.281,169.04z M163.281,176.923h2.296c2.012,0,3.034,0.764,3.034,2.269
		c0,1.53-1.108,2.351-3.26,2.351h-2.07V176.923L163.281,176.923z M177.85,165.495v19.677h13.977v-3.798h-8.731v-4.481h7.938v-3.743
		h-7.938v-3.969h8.42v-3.686H177.85L177.85,165.495z M196.045,165.495v19.677h5.132v-7.685h0.767c1.899,0,2.778,0.452,3.374,2.29
		l1.73,5.395h5.471l-2.354-6.524c-0.537-1.525-0.934-2.661-2.494-3.229c2.521-0.564,3.883-2.269,3.883-4.79
		c0-3.518-2.552-5.133-7.681-5.133H196.045L196.045,165.495z M201.177,168.955h1.304c2.666,0,3.941,0.767,3.941,2.579
		c0,1.646-1.132,2.468-3.401,2.468h-1.844V168.955L201.177,168.955z M215.547,165.495v19.677h13.155v-3.883h-7.909v-15.794H215.547
		L215.547,165.495z M232.045,165.495v19.677h5.246v-19.677H232.045L232.045,165.495z M241.96,165.495v19.677h4.735v-10.376
		c0-1.447-0.167-3.401-0.537-5.841c0.369,1.502,0.821,2.836,1.389,3.996l5.926,12.221h6.521v-19.677h-4.735v11.145
		c0,1.39,0.171,3.035,0.482,4.902c-0.623-2.039-1.135-3.459-1.532-4.253l-5.697-11.794H241.96L241.96,165.495z M282.022,165.95
		c-2.043-0.625-4.198-0.964-6.439-0.964c-7.288,0-11.51,3.883-11.51,10.49c0,6.606,4.023,10.151,11.708,10.151
		c2.412,0,4.65-0.312,6.665-0.88v-10.972h-7.911v3.711h3.031v4.113c-0.65,0.171-1.331,0.226-2.039,0.226
		c-3.716,0-6.124-2.494-6.124-6.49c0-4.112,2.634-6.665,6.945-6.665c1.844,0,3.6,0.455,5.218,1.361L282.022,165.95L282.022,165.95z
		 M287.035,165.495v19.677h13.976v-3.798h-8.73v-4.481h7.938v-3.743h-7.938v-3.969h8.419v-3.686H287.035L287.035,165.495z
		 M305.229,165.495v19.677h4.735v-10.376c0-1.447-0.171-3.401-0.537-5.841c0.366,1.502,0.821,2.836,1.389,3.996l5.926,12.221h6.521
		v-19.677h-4.736v11.145c0,1.39,0.171,3.035,0.482,4.902c-0.626-2.039-1.135-3.459-1.532-4.253l-5.697-11.794H305.229
		L305.229,165.495z M337.895,165.495l-2.779,7.568h4.706l1.815-7.568H337.895L337.895,165.495z M345.038,165.495l-2.75,7.568h4.681
		l1.812-7.568H345.038L345.038,165.495z M352.518,165.495v19.677h13.158v-3.883h-7.909v-15.794H352.518L352.518,165.495z
		 M374.09,165.495l-7.455,19.677h5.187l1.475-4.167h7.572l1.388,4.167h5.615l-7.459-19.677H374.09L374.09,165.495z M377.152,169.89
		l2.466,7.372h-5.015L377.152,169.89L377.152,169.89z M397.767,165.495v19.677h5.244v-6.859h2.241c4.988,0,7.627-2.299,7.627-6.552
		c0-4.308-2.639-6.266-8.082-6.266H397.767L397.767,165.495z M403.011,169.04h1.417c2.069,0,3.148,1.048,3.148,2.977
		c0,1.813-1.079,2.751-3.176,2.751h-1.39V169.04L403.011,169.04z M416.303,165.495v19.677h5.246v-19.677H416.303L416.303,165.495z
		 M431.296,165.495l-7.454,19.677h5.186l1.475-4.167h7.572l1.389,4.167h5.615l-7.456-19.677H431.296L431.296,165.495z
		 M434.358,169.89l2.467,7.372h-5.016L434.358,169.89L434.358,169.89z M446.803,165.495v3.799h9.471l-9.756,11.485v4.393h15.227
		v-3.798h-9.895l9.895-11.711v-4.168H446.803L446.803,165.495z M464.998,165.495v3.799h9.47l-9.751,11.485v4.393h15.226v-3.798
		h-9.896l9.896-11.711v-4.168H464.998L464.998,165.495z M488.586,165.495l-7.461,19.677h5.191l1.474-4.167h7.568l1.394,4.167h5.61
		l-7.455-19.677H488.586L488.586,165.495z M491.646,169.89l2.467,7.372h-5.02L491.646,169.89L491.646,169.89z M503.153,165.495
		l-1.817,7.542h3.743l2.752-7.542H503.153L503.153,165.495z M510.325,165.495l-1.842,7.542h3.743l2.777-7.542H510.325
		L510.325,165.495z M182.51,200.397v3.941h4.879v15.736h5.245v-15.736h4.876v-3.941H182.51L182.51,200.397z M208.164,211.315h-5.868
		c0.226-2.012,1.361-3.147,2.918-3.147C206.805,208.168,207.965,209.304,208.164,211.315L208.164,211.315z M212.587,213.043
		c0-5.073-2.665-7.937-7.4-7.937c-4.676,0-7.653,2.891-7.653,7.427c0,4.935,3.117,7.938,8.474,7.938
		c1.902,0,3.662-0.281,5.303-0.876v-3.576c-1.701,0.794-3.346,1.223-4.821,1.223c-2.467,0-3.941-1.105-4.14-2.978h10.236V213.043
		L212.587,213.043z M216.184,198.811v21.265h4.992v-21.265H216.184L216.184,198.811z M226.017,215.568v4.507h4.622v-4.507H226.017
		L226.017,215.568z M250.172,199.915c-4.904,0-7.514,3.517-7.514,10.323c0,6.805,2.58,10.292,7.514,10.292
		c4.933,0,7.513-3.46,7.513-10.292C257.686,203.432,255.105,199.915,250.172,199.915L250.172,199.915z M250.172,203.405
		c1.817,0,2.58,2.237,2.58,6.774s-0.763,6.806-2.58,6.806c-1.841,0-2.607-2.238-2.607-6.806
		C247.565,205.615,248.358,203.405,250.172,203.405L250.172,203.405z M260.997,200.397v3.658h9.047l-7.6,16.02h5.588l7-15.51v-4.168
		H260.997L260.997,200.397z M280.558,200.397l-0.112,10.607c1.502-0.343,2.833-0.511,4.082-0.511c2.863,0,4.424,1.16,4.424,3.09
		c0,1.614-1.476,2.863-3.97,2.863c-1.587,0-3.206-0.369-4.766-1.163v4.195c1.673,0.54,3.462,0.767,5.447,0.767
		c5.244,0,8.393-2.778,8.393-6.833c0-3.829-2.696-6.323-7.089-6.323c-0.627,0-1.25,0.059-1.93,0.14l0.085-3.314h8.139v-3.518
		H280.558L280.558,200.397z M298.897,200.397l-0.113,10.607c1.501-0.343,2.836-0.511,4.081-0.511c2.864,0,4.424,1.16,4.424,3.09
		c0,1.614-1.475,2.863-3.969,2.863c-1.587,0-3.206-0.369-4.762-1.163v4.195c1.669,0.54,3.459,0.767,5.444,0.767
		c5.245,0,8.393-2.778,8.393-6.833c0-3.829-2.696-6.323-7.089-6.323c-0.623,0-1.249,0.059-1.93,0.14l0.085-3.314h8.14v-3.518
		H298.897L298.897,200.397z M323.247,200.397l-6.692,4.397l2.326,3.4l3.658-2.494v14.374h4.79v-19.678H323.247L323.247,200.397z
		 M341.99,209.981v3.742h7.568v-3.742H341.99L341.99,209.981z M367.963,203.374c1.389,0,2.435,1.222,2.435,3.035
		c0,1.759-1.105,2.977-2.494,2.977c-1.416,0-2.409-1.218-2.409-3.031C365.494,204.452,366.43,203.374,367.963,203.374
		L367.963,203.374z M361.609,219.564c1.559,0.541,3.061,0.825,4.648,0.825c5.926,0,9.132-3.657,9.132-10.606
		c0-6.352-2.836-9.868-7.798-9.868c-4.111,0-7.003,2.778-7.003,6.806c0,3.743,2.521,6.322,5.926,6.322
		c1.728,0,3.12-0.622,4.168-1.926c-0.028,3.798-1.562,5.67-4.65,5.67c-1.417,0-2.806-0.37-4.055-1.106L361.609,219.564
		L361.609,219.564z M389.277,209.841c2.354-0.681,3.572-2.155,3.572-4.283c0-3.288-2.579-5.33-7.229-5.33
		c-2.07,0-4.054,0.283-5.984,0.852l0.226,3.657c1.591-0.596,3.148-0.88,4.623-0.88c2.128,0,3.431,0.911,3.431,2.27
		c0,1.221-1.247,2.183-3.318,2.183h-2.237v3.459h2.439c2.152,0,3.257,0.793,3.257,2.214c0,1.528-1.471,2.552-4.14,2.552
		c-1.643,0-3.202-0.342-4.649-1.051l-0.281,4.082c1.729,0.455,3.46,0.682,5.187,0.682c5.786,0,9.047-2.354,9.047-5.841
		C393.219,212.108,391.885,210.521,389.277,209.841L389.277,209.841z M403.932,216.39c4.988-4.141,7.568-7.485,7.568-10.604
		c0-3.373-2.693-5.84-6.747-5.84c-2.183,0-4.366,0.396-6.549,1.218l0.141,4.055c1.93-0.938,3.603-1.416,5.104-1.416
		c1.755,0,2.833,1.046,2.833,2.579c0,2.241-2.946,5.304-8.591,9.895v3.799h14.065v-3.686H403.932L403.932,216.39z M429.726,200.88
		c-1.56-0.537-3.089-0.821-4.677-0.821c-5.927,0-9.133,3.686-9.133,10.631c0,6.354,2.837,9.841,7.798,9.841
		c4.113,0,7.004-2.751,7.004-6.779c0-3.738-2.495-6.35-5.926-6.35c-1.728,0-3.117,0.654-4.167,1.957
		c0.027-3.801,1.561-5.7,4.648-5.7c1.417,0,2.81,0.37,4.055,1.109L429.726,200.88L429.726,200.88z M423.402,211.06
		c1.421,0,2.412,1.221,2.412,3.034c0,1.872-0.937,2.977-2.466,2.977c-1.42,0-2.44-1.19-2.44-3.004
		C420.908,212.308,422.014,211.06,423.402,211.06L423.402,211.06z M433.89,200.397v3.658h9.043l-7.599,16.02h5.587l7.003-15.51
		v-4.168H433.89L433.89,200.397z M459.742,199.915c-4.906,0-7.514,3.517-7.514,10.323c0,6.805,2.58,10.292,7.514,10.292
		s7.513-3.46,7.513-10.292C467.255,203.432,464.676,199.915,459.742,199.915L459.742,199.915z M459.742,203.405
		c1.812,0,2.579,2.237,2.579,6.774s-0.767,6.806-2.579,6.806c-1.844,0-2.607-2.238-2.607-6.806
		C457.135,205.615,457.929,203.405,459.742,203.405L459.742,203.405z"/>
</g>
</svg>
