<?xml version="1.0" encoding="utf-8"?>
<!-- Generator: Adobe Illustrator 16.0.3, SVG Export Plug-In . SVG Version: 6.00 Build 0)  -->
<!DOCTYPE svg PUBLIC "-//W3C//DTD SVG 1.1//EN" "http://www.w3.org/Graphics/SVG/1.1/DTD/svg11.dtd">
<svg version="1.1" id="Ebene_1" xmlns="http://www.w3.org/2000/svg" xmlns:xlink="http://www.w3.org/1999/xlink" x="0px" y="0px"
	 width="300px" height="100px" viewBox="0 0 300 100" enable-background="new 0 0 300 100" xml:space="preserve">
<g>
	<path fill="#326F4C" d="M280.429,40.38l-4.461,14.296c-0.312,0.108-0.633,0.162-0.966,0.162c-0.334,0-0.64,0-0.917,0
		c-0.573,0.055-1.113,0.093-1.621,0.12c-0.507,0.027-0.983,0.041-1.427,0.041c-5.607,0-9.75-1.67-12.429-5.007
		c-2.679-3.339-3.11-7.917-1.294-13.733c1.966-6.3,5.503-11.051,10.61-14.255c5.108-3.206,10.522-4.807,16.239-4.807
		c6.386,0,10.771,1.871,13.157,5.613c2.386,3.744,3.178,7.877,2.376,12.399c-0.041,0.486-0.122,0.97-0.246,1.455
		c-0.122,0.484-0.26,0.97-0.412,1.454l-5.166,16.558h-15.49l5.771-18.497c0.539-1.724,0.386-3.016-0.455-3.877
		c-0.842-0.862-1.94-1.346-3.294-1.455c-0.057,0-0.126,0-0.209,0c-0.082,0-0.151,0-0.208,0c-0.056,0-0.097,0-0.124,0
		c-0.028,0-0.069,0-0.125,0c-1.351,0.054-2.71,0.5-4.081,1.333c-1.369,0.835-2.291,2.006-2.762,3.515
		c-0.521,1.669-0.486,3.068,0.104,4.199c0.593,1.131,1.609,1.696,3.052,1.696c0.39,0,0.821-0.054,1.3-0.161
		c0.479-0.108,0.965-0.242,1.459-0.405c0.294-0.054,0.569-0.134,0.824-0.242c0.256-0.106,0.512-0.215,0.768-0.323L280.429,40.38z"/>
	<path fill="#326F4C" d="M210.426,54.676l7.208-23.1c1.412-4.524,4.335-7.931,8.771-10.219c4.433-2.289,8.899-3.434,13.396-3.434
		c0.166,0,0.317,0,0.457,0s0.292,0,0.459,0c4.334,0.163,7.966,1.427,10.891,3.798c2.924,2.369,3.664,5.868,2.22,10.499
		l-7.008,22.456h-16.073l6.655-21.324c0.219-0.699,0.209-1.251-0.025-1.656c-0.234-0.403-0.558-0.658-0.969-0.767
		c-0.039-0.054-0.099-0.082-0.182-0.082c-0.084,0-0.181,0-0.293,0c-0.11,0-0.225,0.014-0.345,0.041
		c-0.12,0.027-0.234,0.041-0.345,0.041c-0.552,0.161-1.105,0.471-1.665,0.93c-0.561,0.457-0.932,0.982-1.116,1.574l-6.629,21.243
		H210.426z"/>
	<path fill="#326F4C" d="M186.385,36.179c-0.471,1.507-0.349,2.679,0.359,3.513c0.713,0.835,1.643,1.278,2.791,1.333
		c0.057,0,0.098,0,0.126,0c0.027,0,0.068,0,0.124,0c1.166,0,2.365-0.417,3.597-1.251c1.233-0.835,2.084-2.006,2.555-3.515
		c0.403-1.292,0.315-2.301-0.264-3.029c-0.577-0.726-1.34-1.17-2.289-1.331c-0.095-0.054-0.211-0.082-0.351-0.082
		c-0.138,0-0.264,0-0.374,0c-0.056,0-0.097,0-0.126,0c-0.026,0-0.069,0-0.123,0c-1.184,0.054-2.383,0.471-3.597,1.251
		c-1.217,0.78-2.034,1.844-2.454,3.19L186.385,36.179z M171.561,36.179c1.596-5.115,4.814-9.558,9.656-13.329
		c4.84-3.769,9.953-5.653,15.338-5.653c6.219,0,10.553,1.898,13.005,5.694c2.452,3.796,2.992,7.983,1.619,12.562
		c-0.018,0.052-0.028,0.093-0.038,0.12c-0.008,0.027-0.02,0.068-0.037,0.122c-1.108,3.55-2.734,6.655-4.879,9.316h-13.563
		l-3.199,10.253c-0.512,0.113-1.022,0.21-1.532,0.287c-0.337-2.584-1.371-5.018-3.432-7.062c-3.646-3.614-8.285-5.121-13.366-5.175
		h-0.06l-0.654,0.039c-0.078-2.092,0.294-4.457,1.117-7.094L171.561,36.179z"/>
	<path fill="#326F4C" d="M130.646,54.676l3.932-12.601h10.077c0.649,0.054,1.184-0.014,1.604-0.202
		c0.419-0.188,0.664-0.389,0.73-0.606c0.067-0.215,0.009-0.471-0.177-0.767c-0.185-0.296-0.468-0.633-0.85-1.009
		c-0.244-0.108-0.479-0.242-0.707-0.405c-0.227-0.161-0.49-0.296-0.79-0.403c-2.396-0.862-4.138-2.129-5.228-3.796
		c-1.089-1.671-1.146-4.067-0.172-7.189c0.724-2.316,1.96-4.147,3.713-5.493c1.753-1.346,3.499-2.316,5.238-2.909
		c0.861-0.269,1.688-0.471,2.478-0.604c0.792-0.135,1.492-0.203,2.104-0.203l16.679-0.08l-3.579,11.47h-7.659
		c-0.684,0.054-1.333,0.174-1.947,0.362c-0.613,0.189-0.979,0.472-1.098,0.848c-0.051,0.163,0.014,0.405,0.189,0.728
		c0.177,0.324,0.514,0.672,1.006,1.05c0.077,0.106,0.188,0.202,0.329,0.283c0.142,0.08,0.276,0.174,0.41,0.283
		c0.134,0.107,0.256,0.202,0.37,0.283c0.114,0.079,0.244,0.147,0.396,0.201c1.623,1.022,2.994,2.235,4.111,3.635
		s1.319,3.688,0.606,6.866c-0.039,0.128-0.081,0.256-0.124,0.382c-1.834,0.645-3.593,1.519-5.263,2.638
		c-3.008,2.022-5.799,4.418-8.044,7.274c-0.523,0.029-1.063,0.045-1.621,0.045L130.646,54.676z"/>
	<path fill="#326F4C" d="M97.917,54.676l11.316-36.267h14.241l-1.436,4.604c1.513-1.292,2.975-2.33,4.385-3.111
		c1.409-0.78,2.764-1.387,4.063-1.816c1.468-0.432,2.895-0.688,4.279-0.769c1.386-0.08,2.717-0.12,3.994-0.12l-3.957,12.682
		c-0.294,0.054-0.609,0.08-0.941,0.08c-0.334,0-0.639,0-0.916,0c-3.032,0.108-5.951,0.701-8.758,1.778
		c-2.807,1.077-4.824,3.581-6.051,7.513l-4.814,15.427H97.917z"/>
	<path fill="#326F4C" d="M99.473,31.01L77.125,41.511l-1.962-7.594l8.506-4.038c-0.249-0.269-0.541-0.539-0.873-0.808
		c-0.333-0.27-0.704-0.459-1.115-0.565c-0.15-0.054-0.303-0.095-0.461-0.122c-0.16-0.027-0.321-0.041-0.487-0.041
		c-0.111,0-0.241,0.014-0.387,0.041c-0.148,0.027-0.305,0.041-0.471,0.041c-1.417,0.269-2.896,1.09-4.435,2.463
		c-1.538,1.374-2.593,2.975-3.166,4.807c-0.772,2.477-0.673,4.428,0.297,5.855s2.483,2.142,4.537,2.142
		c0.778,0,1.647-0.122,2.612-0.364c0.965-0.242,1.958-0.579,2.981-1.011c0.966-0.43,1.945-0.941,2.935-1.534
		c0.99-0.592,1.972-1.292,2.945-2.099l6,7.997c-2.728,2.692-5.918,4.819-9.57,6.38c-3.652,1.561-7.25,2.504-10.792,2.827
		c-0.389,0-0.768,0.014-1.137,0.041c-0.37,0.027-0.749,0.04-1.137,0.04c-4.775,0-8.721-1.454-11.839-4.363
		c-3.118-2.907-3.808-7.592-2.069-14.053c0.018-0.054,0.024-0.122,0.022-0.201c-0.003-0.082,0.013-0.176,0.046-0.283
		c0.034-0.109,0.049-0.204,0.046-0.283c-0.003-0.081,0.005-0.149,0.021-0.203c1.73-5.545,4.666-9.881,8.805-13.003
		c4.14-3.124,8.222-5.09,12.25-5.897c0.716-0.161,1.435-0.283,2.154-0.364c0.719-0.08,1.412-0.12,2.078-0.12
		c5.941,0,10.005,1.387,12.194,4.16c2.188,2.773,3.451,6.018,3.791,9.732L99.473,31.01z"/>
	<path fill="#326F4C" d="M9.39,54.676l10.964-35.137c0.286-0.915,0.73-1.939,1.333-3.068c0.603-1.131,1.339-2.29,2.209-3.475
		c2.023-2.747,4.737-5.264,8.144-7.552c3.407-2.289,7.336-3.54,11.79-3.757l1.357-0.079c5.036,0.052,9.101,1.615,12.197,4.685
		c3.094,3.07,3.845,7.511,2.252,13.327l-0.479,1.534c-0.067,0.217-0.13,0.418-0.189,0.606c-0.059,0.19-0.122,0.392-0.189,0.606
		c-1.549,4.255-4.393,8.158-8.526,11.711c-4.135,3.556-9.617,5.332-16.446,5.332c-0.055,0-0.134-0.014-0.237-0.041
		c-0.102-0.027-0.209-0.041-0.32-0.041s-0.217-0.014-0.321-0.041c-0.102-0.025-0.181-0.039-0.237-0.039l4.537-14.54
		c0.039,0.052,0.083,0.093,0.129,0.12c0.047,0.027,0.099,0.041,0.154,0.041c0,0,0.024,0.014,0.072,0.041
		c0.046,0.027,0.098,0.041,0.153,0.041c1.389,0,2.592-0.391,3.613-1.172c1.021-0.78,1.739-1.656,2.152-2.626
		c0.017-0.052,0.038-0.12,0.063-0.202c0.026-0.081,0.047-0.147,0.063-0.201c0.018-0.054,0.038-0.122,0.063-0.202
		c0.026-0.081,0.047-0.149,0.063-0.203c0.143-0.808,0.035-1.534-0.318-2.181c-0.354-0.645-1.058-0.968-2.112-0.968
		c-1.721,0-3.001,0.498-3.839,1.495c-0.838,0.996-1.618,2.651-2.341,4.966l-9.679,31.018H9.39z"/>
	<path fill="#A7B596" d="M244.412,98.07l7.209-23.102c1.411-4.524,4.334-7.929,8.77-10.219c4.434-2.289,8.899-3.432,13.396-3.432
		c0.167,0,0.317,0,0.457,0s0.293,0,0.459,0c4.335,0.161,7.966,1.426,10.891,3.796c2.925,2.369,3.664,5.869,2.22,10.5l-7.008,22.456
		h-16.073l6.655-21.325c0.217-0.699,0.209-1.251-0.025-1.656c-0.234-0.402-0.558-0.658-0.969-0.767
		c-0.038-0.053-0.099-0.08-0.182-0.08s-0.181,0-0.293,0c-0.11,0-0.225,0.014-0.345,0.039c-0.12,0.027-0.234,0.041-0.347,0.041
		c-0.55,0.162-1.104,0.473-1.663,0.93s-0.932,0.981-1.116,1.574l-6.629,21.244H244.412z"/>
	<path fill="#A7B596" d="M227.471,83.773l-4.462,14.297c-0.31,0.107-0.634,0.161-0.965,0.161c-0.333,0-0.639,0-0.916,0
		c-0.573,0.055-1.113,0.095-1.621,0.122c-0.507,0.025-0.983,0.039-1.427,0.039c-5.609,0-9.752-1.668-12.429-5.007
		c-2.679-3.339-3.11-7.918-1.296-13.731c1.966-6.301,5.503-11.054,10.611-14.257c5.107-3.205,10.521-4.808,16.24-4.808
		c6.386,0,10.771,1.871,13.154,5.615c2.387,3.742,3.179,7.875,2.379,12.399c-0.041,0.484-0.122,0.968-0.246,1.452
		c-0.124,0.486-0.262,0.971-0.412,1.455l-5.168,16.559h-15.49l5.773-18.498c0.537-1.724,0.386-3.016-0.457-3.877
		c-0.841-0.862-1.938-1.346-3.292-1.453c-0.057,0-0.126,0-0.21,0c-0.083,0-0.152,0-0.207,0c-0.056,0-0.097,0-0.126,0
		c-0.026,0-0.069,0-0.124,0c-1.35,0.053-2.709,0.498-4.08,1.331c-1.371,0.837-2.292,2.007-2.762,3.516
		c-0.521,1.669-0.486,3.067,0.104,4.2c0.591,1.131,1.609,1.695,3.052,1.695c0.39,0,0.821-0.053,1.3-0.161s0.963-0.242,1.458-0.403
		c0.295-0.054,0.569-0.135,0.825-0.243c0.256-0.107,0.512-0.216,0.768-0.324L227.471,83.773z"/>
	<polygon fill="#A7B596" points="177.872,98.07 193.903,46.698 209.893,46.698 193.862,98.07 	"/>
	<path fill="#A7B596" d="M135.317,98.07l10.964-35.137c0.286-0.916,0.73-1.938,1.333-3.069c0.603-1.131,1.339-2.289,2.208-3.475
		c2.022-2.746,4.737-5.263,8.143-7.552c3.407-2.287,7.337-3.541,11.791-3.755l1.356-0.082c5.035,0.054,9.101,1.615,12.197,4.685
		c3.095,3.07,3.845,7.513,2.253,13.328l-0.479,1.535c-0.068,0.215-0.13,0.417-0.19,0.606c-0.058,0.188-0.121,0.39-0.188,0.604
		c-1.55,4.255-4.393,8.159-8.527,11.713c-4.135,3.555-9.616,5.33-16.445,5.33c-0.057,0-0.136-0.013-0.238-0.04
		c-0.101-0.027-0.209-0.039-0.319-0.039c-0.112,0-0.217-0.014-0.319-0.041c-0.104-0.026-0.183-0.04-0.238-0.04l4.535-14.539
		c0.041,0.054,0.084,0.095,0.13,0.121c0.047,0.025,0.099,0.039,0.153,0.039c0,0,0.025,0.014,0.071,0.041
		c0.047,0.027,0.099,0.04,0.155,0.04c1.387,0,2.592-0.391,3.612-1.171c1.021-0.781,1.739-1.656,2.151-2.625
		c0.018-0.054,0.037-0.122,0.064-0.201c0.024-0.081,0.044-0.149,0.062-0.203c0.018-0.055,0.037-0.12,0.064-0.202
		c0.024-0.081,0.044-0.148,0.062-0.201c0.142-0.808,0.035-1.536-0.319-2.181c-0.353-0.646-1.058-0.971-2.111-0.971
		c-1.722,0-3.002,0.498-3.841,1.496c-0.837,0.995-1.617,2.651-2.34,4.968L151.39,98.07H135.317z"/>
	<polygon fill-rule="evenodd" clip-rule="evenodd" fill="#326F4C" points="4.839,69.286 140.345,69.286 138.314,75.471 
		2.901,75.471 	"/>
	<polygon fill-rule="evenodd" clip-rule="evenodd" fill="#A7B596" points="1.918,78.563 137.349,78.563 135.419,84.746 0,84.746 	
		"/>
</g>
</svg>
