<?xml version="1.0" encoding="utf-8"?>
<!-- Generator: Adobe Illustrator 22.0.1, SVG Export Plug-In . SVG Version: 6.00 Build 0)  -->
<svg version="1.1" id="Ebene_1" xmlns="http://www.w3.org/2000/svg" xmlns:xlink="http://www.w3.org/1999/xlink" x="0px" y="0px"
	 viewBox="0 0 1080 1080" style="enable-background:new 0 0 1080 1080;" xml:space="preserve">
<style type="text/css">
	.st0{fill:#020203;}
</style>
<g>
	<rect x="85" y="795.1" class="st0" width="273.9" height="11.6"/>
	<rect x="700" y="795.1" class="st0" width="295" height="11.6"/>
	<polygon class="st0" points="450.2,769.3 432.8,769.3 432.8,839.5 479.5,839.5 479.5,826.6 450.2,826.6 	"/>
	<path class="st0" d="M538.8,814.4c1.2,9.2-4.6,13.6-11.8,13.6c-7.6,0-14.3-4.9-14.3-24c0-18.1,6.1-23.7,13.7-23.7
		c7.9,0,12.3,4.5,10.5,15.6l16.2-1.5c2.3-15.2-5.9-26.4-26.4-26.4c-19.5,0-32.1,10.5-32.1,35.9c0,25.6,12.3,36.8,31.3,36.8
		c18.7,0,29-10.5,27.9-24.8L538.8,814.4z"/>
	<rect x="607.7" y="748.6" class="st0" width="12.5" height="13.2"/>
	<path class="st0" d="M614.8,814c0,9.4-4.3,13-11.3,13c-7.2,0-10.9-3.7-10.9-12.7v-45.1h-17.4v46c0,15.5,10.7,25.5,27.8,25.5
		c18.2,0,28.7-10.9,28.7-27.1v-44.4h-16.9V814z"/>
	<rect x="586.5" y="748.6" class="st0" width="12.5" height="13.2"/>
	<polygon class="st0" points="203.4,387 165.6,349.2 203.7,311.4 195.9,303.5 149.8,349.2 195.5,394.9 	"/>
	<path class="st0" d="M170.5,438.3c10.5,0,16-5.1,20.5-9.2c3.9-3.6,6.8-6.3,12.9-6.3c6.2,0,9,2.6,12.9,6.3c4.4,4.1,10,9.2,20.5,9.2
		c10.5,0,16.1-5.1,20.5-9.2c3.9-3.6,6.8-6.3,12.9-6.3c6.2,0,9,2.6,12.9,6.3c4.4,4.1,10,9.2,20.5,9.2v-11.1c-6.2,0-9-2.6-12.9-6.3
		c-4.4-4.1-10-9.2-20.5-9.2c-10.5,0-16.1,5.1-20.5,9.2c-3.9,3.6-6.8,6.3-12.9,6.3c-6.2,0-9-2.6-12.9-6.3c-4.4-4.1-10-9.2-20.5-9.2
		c-10.5,0-16,5.1-20.5,9.2c-3.9,3.6-6.8,6.3-12.9,6.3s-9-2.6-12.9-6.3c-4.4-4.1-10-9.2-20.5-9.2v11.1c6.2,0,9,2.6,12.9,6.3
		C154.4,433.2,159.9,438.3,170.5,438.3z"/>
	<path class="st0" d="M239.5,396.1c13.3,0,24.1-10.8,24.1-24.1s-10.8-24.1-24.1-24.1s-24.1,10.8-24.1,24.1S226.3,396.1,239.5,396.1z
		 M239.5,359c7.2,0,13,5.8,13,13c0,7.2-5.8,13-13,13s-13-5.8-13-13C226.6,364.9,232.4,359,239.5,359z"/>
	<path class="st0" d="M354.3,239.2H85v269.3h269.3V239.2z M343.2,497.4h-247v-247h247V497.4z"/>
	<path class="st0" d="M674.6,239.2H405.4v269.3h269.3V239.2z M663.5,497.4h-247v-247h247V497.4z"/>
	<path class="st0" d="M540.4,435.9c-32.3,0-58.7-26.3-58.7-58.7h-11.1c0,38.5,31.3,69.8,69.8,69.8c38.5,0,69.8-31.3,69.8-69.8
		c0-38.5-31.3-69.8-69.8-69.8c-13.9,0-27.6,4.2-39,11.9l-14.6-18.3l-8.7,6.9l43.4,54.4c-3.2,4.1-5.1,9.2-5.1,14.8
		c0,13.3,10.8,24.1,24.1,24.1s24.1-10.8,24.1-24.1s-10.8-24.1-24.1-24.1c-3.7,0-7.1,0.8-10.3,2.3l-21.8-27.3
		c9.5-6.3,20.5-9.5,32.1-9.5c32.3,0,58.7,26.3,58.7,58.7S572.8,435.9,540.4,435.9z M553.4,377.2c0,7.2-5.8,13-13,13
		c-7.2,0-13-5.8-13-13c0-7.2,5.8-13,13-13C547.6,364.3,553.4,370.1,553.4,377.2z"/>
	<polygon class="st0" points="807.1,335 844.9,373.1 852.8,365.3 807.1,319.2 761.4,365.3 769.3,373.1 	"/>
	<polygon class="st0" points="869.6,382.1 823.9,427.8 831.7,435.6 869.6,397.8 911.3,439.6 957.1,393.9 949.3,386 911.3,423.9 	"/>
	<path class="st0" d="M889.2,372.3c13.3,0,24.1-10.8,24.1-24.1s-10.8-24.1-24.1-24.1s-24.1,10.8-24.1,24.1S875.9,372.3,889.2,372.3z
		 M889.2,335.2c7.2,0,13,5.8,13,13s-5.8,13-13,13c-7.2,0-13-5.8-13-13S882,335.2,889.2,335.2z"/>
	<path class="st0" d="M725.7,239.2v269.3H995V239.2H725.7z M983.9,497.4h-247v-247h247V497.4z"/>
	<polygon class="st0" points="151.4,702.2 151.4,598.8 186.7,598.8 186.7,575.5 85.6,575.5 85.6,598.8 120.1,598.8 120.1,702.2 	"/>
	<path class="st0" d="M316.1,610.8c0-23.3-16.7-35.3-41.5-35.3h-52.1v126.6h31.3v-50.1h7.1c6.9,0,12.2,15.8,15.9,24.8
		c8.8,20.1,17.4,25.9,32.5,25.9c5.8,0,12.6-1.7,12.6-1.7l2.4-22.3c0,0-2.3,0.9-5.1,0.9c-11.1,0-14.6-11.8-19.9-22.5
		c-2.3-4.5-5.1-8.8-8.8-12C303.2,641.2,316.1,629.7,316.1,610.8z M265.1,629.4h-11.3v-31.1h15c8.6,0,15.8,3.8,15.8,14.8
		C284.6,626.6,274.1,629.4,265.1,629.4z"/>
	<polygon class="st0" points="361.9,597.7 378.8,597.7 378.8,680 361.9,680 361.9,702.2 427.2,702.2 427.2,680 410.1,680
		410.1,597.7 427.2,597.7 427.2,575.5 361.9,575.5 	"/>
	<polygon class="st0" points="464.7,598.8 499.2,598.8 499.2,702.2 530.5,702.2 530.5,598.8 565.8,598.8 565.8,575.5 464.7,575.5
		"/>
	<polygon class="st0" points="633,649.3 677,649.3 677,626 633,626 633,598.8 685.5,598.8 685.5,575.5 601.6,575.5 601.6,702.2
		687.4,702.2 687.4,678.9 633,678.9 	"/>
	<path class="st0" d="M796.2,678.1l7.9,24h31.7L793,575.5h-31.7l-42.6,126.6h27.4l7.7-24H796.2z M770.1,628.1
		c2.8-8.6,4.7-21.6,4.7-21.6h0.8c0,0,1.3,12.8,4.3,21.8l8.6,26.6h-27.2L770.1,628.1z"/>
	<path class="st0" d="M965,702.2h29.3V575.5h-37L937.2,632c-3.2,8.6-5.4,18.2-5.4,18.2H931c0,0-2.3-9.2-5.4-18.2L905,575.5h-38.8
		v126.6h25.7v-64c0-7.5-1.3-24-1.3-24h0.8c0,0,3.2,16.3,5.8,23.1l24.6,64.9h14.1l24.4-64.9c2.4-6.4,6.2-24.2,6.2-24.2h0.8
		c0,0-2.1,17.6-2.1,25.1V702.2z"/>
</g>
</svg>
