<?xml version="1.0" encoding="utf-8"?>
<!-- Generator: Adobe Illustrator 16.0.3, SVG Export Plug-In . SVG Version: 6.00 Build 0)  -->
<!DOCTYPE svg PUBLIC "-//W3C//DTD SVG 1.1//EN" "http://www.w3.org/Graphics/SVG/1.1/DTD/svg11.dtd">
<svg version="1.1" id="Ebene_1" xmlns="http://www.w3.org/2000/svg" xmlns:xlink="http://www.w3.org/1999/xlink" x="0px" y="0px"
	 width="110.55px" height="96.09px" viewBox="0 0 110.55 96.09" enable-background="new 0 0 110.55 96.09" xml:space="preserve">
<g>
	<g>
		<path fill-rule="evenodd" clip-rule="evenodd" fill="#C00A26" d="M110.552,77.311c-7.767-0.46-14.947,2.206-22.843,0.457
			c-3.679-0.814-8.981-5.898-13.248-8.224C61.58,62.528,47.708,58.516,32.435,53.553c-0.567-0.187-2.886,0.285-2.739-1.371
			C59.313,56.071,87.2,65.629,110.552,77.311"/>
		<g>
			<path d="M99.971,18.318v12.869c0,3.177-0.226,6.646-4.31,6.646s-4.31-3.469-4.31-6.646V18.318h-6.353v13.746
				c0,0.545,0.01,1.087,0.029,1.626c-0.39-0.034-0.781-0.065-1.181-0.065c-3.337,0-6.696,1.416-9.085,3.754H65.79V18.318h-6.352
				V42.76h12.069c-0.366,1.21-0.559,2.479-0.559,3.766c0,3.63,1.23,6.806,3.922,9.237c2.528,2.303,5.769,3.598,9.17,3.598
				c1.978,0,7.615-0.448,10.964-6.473l-5.356-2.277c-1.329,1.587-3.403,2.592-5.476,2.592c-3.955,0-6.612-2.787-6.612-6.646
				c0-3.792,2.626-6.772,6.513-6.772c1.223,0,2.42,0.308,3.467,0.881c0.008,0.006,0.012,0.013,0.018,0.019
				c2.044,2.011,5.25,2.723,8.104,2.723c2.853,0,6.061-0.712,8.103-2.723c2.432-2.365,2.562-5.477,2.562-8.621V18.318H99.971z"/>
			<path d="M95.644,29.71c1.784,0,3.178-1.427,3.178-3.21c0-1.75-1.394-3.177-3.178-3.177c-1.747,0-3.176,1.427-3.176,3.177
				C92.468,28.283,93.896,29.71,95.644,29.71z"/>
			<path d="M95.644,21.412c1.784,0,3.178-1.427,3.178-3.209c0-1.75-1.394-3.176-3.178-3.176c-1.747,0-3.176,1.427-3.176,3.176
				C92.468,19.984,93.896,21.412,95.644,21.412z"/>
		</g>
		<g>
			<path fill="#C00A26" d="M24.075,61.997c7.087,4.765,12.218,11.232,10.643,20.342c-0.719,4.163-5.383,7.418-5.023,9.595
				c10.149,1.424,20.066,3.078,30.604,4.113c3.356-8.603-0.984-17.115-5.481-21.932c-4.987-5.341-13.843-10.345-23.753-14.622
				c-1.617-0.698-3.677-1.538-5.956-2.409"/>
			<path fill="#C00A26" d="M15.442,53.736C9.332,51.866,3.315,50.571,0,51.269c4.076,1.532,9.8,3.418,15.442,5.994"/>
			<path fill="none" stroke="#C00A26" stroke-width="0" stroke-linecap="round" stroke-linejoin="round" d="M15.442,51.88
				c-0.275-0.052-0.55-0.104-0.825-0.155c0.271,0.092,0.551,0.188,0.825,0.281"/>
			<path fill="#C00A26" d="M25.366,55.44c12.404,4.434,25.498,9.987,34.022,18.674c3.677,3.748,5.2,8.441,8.221,13.249
				c7.721,0.961,16.023,1.338,24.211,1.828C78.015,69.605,52.485,59.859,25.602,53.938"/>
			
				<line fill="none" stroke="#FFFFFF" stroke-width="0" stroke-linecap="round" stroke-linejoin="round" x1="15.442" y1="53.736" x2="15.442" y2="57.263"/>
			
				<line fill="none" stroke="#FFFFFF" stroke-width="0" stroke-linecap="round" stroke-linejoin="round" x1="25.366" y1="55.44" x2="25.602" y2="53.938"/>
			
				<line fill="none" stroke="#FFFFFF" stroke-width="0" stroke-linecap="round" stroke-linejoin="round" x1="15.442" y1="52.006" x2="15.442" y2="51.88"/>
			<polyline fill="none" stroke="#FFFFFF" stroke-width="0" stroke-linecap="round" stroke-linejoin="round" points="25.109,57.083 
				24.338,61.997 24.075,61.997 			"/>
			<polyline fill="none" stroke="#FFFFFF" stroke-width="0" stroke-linecap="round" stroke-linejoin="round" points="25.602,53.938 
				26.117,50.653 15.442,50.653 15.442,51.88 			"/>
			
				<line fill="none" stroke="#FFFFFF" stroke-width="0" stroke-linecap="round" stroke-linejoin="round" x1="25.366" y1="55.44" x2="25.109" y2="57.083"/>
			
				<line fill="none" stroke="#FFFFFF" stroke-width="0" stroke-linecap="round" stroke-linejoin="round" x1="15.442" y1="53.736" x2="15.442" y2="52.006"/>
		</g>
		<path fill-rule="evenodd" clip-rule="evenodd" d="M10.753,0.009c0.955,0.439,0.729,4.986,2.31,2.889
			c3.032,8.327,7.871,14.851,10.975,23.106c0.098,2.436-0.889-0.011-1.733,0c-2.01,1.941-2.284,7.361-0.577,9.82
			c-0.116,2.196-2.43,2.192-2.31,4.622C21.267,23.291,14.061,13.524,10.753,0.009"/>
		<path fill-rule="evenodd" clip-rule="evenodd" d="M56.379,10.406c-4.795,14.461-26.306,17.206-28.878,35.815
			C15.378,50.658,16.279,68.117,10.175,78.57c1.38,4.103-0.697,6.085-0.577,10.397h-4.62c6.914-13.326,2.449-32.384,11.552-42.168
			c1.27-1.366,3.857-1.668,5.199-2.888c1.51-1.374,1.884-3.503,3.464-5.199c3.344-3.59,7.036-5.815,9.24-11.553
			c6.434-2.808,10.724-7.759,16.747-10.976c0.659-1.267,1.49-2.36,1.154-4.621C53.438,13.163,56.452,13.014,56.379,10.406"/>
		<path fill-rule="evenodd" clip-rule="evenodd" d="M31.545,26.003c-1.446-0.099-1.809,0.888-2.312,1.733
			c3.272,0.762,0.158,4.379-3.464,4.622c2.257-1.695,0.054-4.261,0.577-7.511c0.514,0.449,1.305,0.622,2.31,0.578
			c-0.453-2.474,0.085-2.353-0.577-4.621c0.513-0.448,1.304-0.621,2.31-0.578c-0.139-1.015-0.995-1.316-2.31-1.156
			C31.507,15.528,32.979,22.362,31.545,26.003"/>
		<path fill-rule="evenodd" clip-rule="evenodd" d="M25.77,49.109c0.672-0.092,1.028,0.129,1.154,0.578
			c-0.198,9.814-3.749,16.274-8.083,21.952c-0.554,3.296-0.709,6.993-4.046,7.509c-1.644-5.575,3.431-9.22,3.467-15.021
			C25.011,65.229,24.059,54.843,25.77,49.109"/>
		<path fill-rule="evenodd" clip-rule="evenodd" d="M19.417,40.445c-0.119-2.43,2.194-2.426,2.312-4.622
			c-1.708-2.459-1.433-7.878,0.576-9.82c0.845-0.01,1.833,2.437,1.733,0c-3.104-8.255-7.941-14.779-10.975-23.106
			c-1.579,2.098-1.354-2.45-2.31-2.889C14.06,13.524,21.267,23.291,19.417,40.445"/>
		<path fill-rule="evenodd" clip-rule="evenodd" d="M52.334,11.562c0.336,2.261-0.495,3.354-1.154,4.621
			c-6.023,3.218-10.313,8.168-16.747,10.976c-2.205,5.738-5.896,7.963-9.24,11.553c-1.581,1.695-1.954,3.825-3.464,5.199
			c-1.342,1.219-3.929,1.522-5.199,2.888c-9.103,9.785-4.638,28.842-11.552,42.168c-1.255,4.261,1.98,5.78,4.62,0
			c-0.12-4.313,1.957-6.295,0.577-10.397c6.104-10.453,5.203-27.912,17.326-32.349c2.572-18.609,24.083-21.354,28.878-35.815
			C56.452,13.014,53.438,13.163,52.334,11.562"/>
		<path fill-rule="evenodd" clip-rule="evenodd" d="M28.08,19.071c1.315-0.16,2.171,0.141,2.31,1.156
			c-1.006-0.044-1.797,0.129-2.31,0.578c0.662,2.267,0.125,2.146,0.577,4.621c-1.005,0.044-1.796-0.129-2.31-0.578
			c-0.523,3.25,1.68,5.816-0.577,7.511c3.623-0.243,6.737-3.86,3.464-4.622c0.502-0.845,0.866-1.832,2.312-1.733
			C32.979,22.362,31.507,15.528,28.08,19.071"/>
		<path fill-rule="evenodd" clip-rule="evenodd" d="M18.262,64.127c-0.037,5.801-5.111,9.444-3.467,15.021
			c3.337-0.516,3.492-4.213,4.046-7.512c4.334-5.675,7.885-12.135,8.083-21.949c-0.126-0.451-0.482-0.673-1.154-0.58
			C24.059,54.843,25.011,65.229,18.262,64.127"/>
		<path fill-rule="evenodd" clip-rule="evenodd" d="M17.105,65.861c-0.404-1.985,2.631-3.479,0.58-5.199
			C17.785,62.342,15.655,64.743,17.105,65.861"/>
	</g>
</g>
</svg>
